<svg width="400" height="97" viewBox="0 0 400 97" fill="none" xmlns="http://www.w3.org/2000/svg">
<g clip-path="url(#clip0_107_4)">
<path fill-rule="evenodd" clip-rule="evenodd" d="M192.696 4.56762C191.211 4.79322 189.835 5.30298 187.657 6.43384C186.964 6.79384 184.101 9.49717 184.101 9.79189C184.101 9.89269 183.991 10.0943 183.855 10.2402C182.929 11.2367 181.87 14.9413 181.807 17.3998C181.803 17.5467 181.345 17.6004 180.077 17.6004C178.127 17.6004 177.946 17.7416 178.846 18.5604C179.117 18.8071 179.338 19.0711 179.338 19.1489C179.338 19.2257 179.541 19.4791 179.79 19.7124C180.336 20.2231 180.282 20.1626 182.7 23.0052C183.769 24.2618 184.698 25.2698 184.765 25.2458C184.939 25.1805 190.976 18.2628 191.175 17.9009C191.332 17.6148 191.249 17.6004 189.468 17.6004C187.324 17.6004 187.529 17.85 187.894 15.6805C188.113 14.3893 188.809 12.8399 189.452 12.2139C189.671 11.9999 189.854 11.7752 189.859 11.7128C189.882 11.4354 191.849 10.2546 192.926 9.87156C197.034 8.41142 202.039 10.0405 203.644 13.3602C205.784 17.7828 204.139 21.6228 197.816 26.9613C195.046 29.3008 194.406 29.8403 193.834 30.3203C193.518 30.5843 193.057 30.9798 192.809 31.1996C192.561 31.4204 192.181 31.744 191.966 31.9196C191.751 32.0953 191.058 32.6723 190.425 33.2022C189.792 33.7311 189.061 34.3436 188.8 34.5625C188.539 34.7814 188.206 35.0732 188.061 35.2124C187.739 35.5206 183.542 39.0332 182.437 39.9202L181.638 40.5595V42.9201V45.2798H194.202H206.767V47.1998C206.767 49.2254 206.825 49.353 207.475 48.7598C208.142 48.1502 209.067 47.387 211.162 45.7195C212.268 44.8392 213.173 44.0558 213.173 43.979C213.173 43.9022 213.271 43.8398 213.393 43.8398C213.633 43.8398 214.488 42.9739 214.488 42.7291C214.488 42.6446 214.215 42.3749 213.882 42.1282C213.266 41.6731 212.767 41.2488 212.022 40.548C211.795 40.3349 211.517 40.1602 211.406 40.1602C211.294 40.1602 211.202 40.0987 211.202 40.0239C211.202 39.8914 207.012 36.4796 206.849 36.4796C206.805 36.4796 206.767 37.3081 206.767 38.3199V40.1602L198.432 40.1592L190.097 40.1583L190.691 39.6389C192.228 38.2959 192.896 37.7429 195.229 35.8757C196.607 34.7746 197.734 33.8118 197.734 33.7359C197.734 33.6611 197.84 33.5996 197.969 33.5996C198.099 33.5996 198.362 33.3836 198.555 33.1196C198.748 32.8556 198.985 32.6396 199.082 32.6396C199.178 32.6396 199.419 32.4783 199.617 32.2796C199.816 32.0819 200.119 31.8092 200.293 31.6739C202.992 29.5667 206.648 26.0944 207.528 24.8013C208.231 23.7703 208.891 22.6913 209.096 22.2401C210.158 19.9025 210.216 19.6059 210.216 16.578C210.216 13.7566 210.188 13.5704 209.443 11.6802C208.514 9.32053 204.83 5.60057 203.423 5.60057C203.334 5.60057 202.797 5.41914 202.227 5.19642C200.207 4.40923 195.695 4.11163 192.696 4.56762Z" fill="#FCC404"/>
<path fill-rule="evenodd" clip-rule="evenodd" d="M47.6504 18.5201L47.6947 37.0402L48.2249 38.2143C49.1039 40.1602 50.9379 42.0802 51.9185 42.0802C52.0436 42.0802 52.2161 42.1483 52.3018 42.2318C52.701 42.6206 54.4866 42.8798 56.7621 42.8798H59.1095V39.5199V36.1599H58.2581C57.0982 36.1599 56.1393 35.6895 55.7323 34.9196C55.4238 34.3388 55.413 33.7705 55.3696 17.1598L55.3243 0H51.4652H47.606L47.6504 18.5201ZM264.587 18.1198C264.589 28.0864 264.655 36.4921 264.733 36.8002C265.37 39.2914 267.565 42.0802 268.889 42.0802C269.013 42.0802 269.186 42.1483 269.272 42.2318C269.672 42.6206 271.457 42.8798 273.733 42.8798H276.08V39.5199V36.1599H275.183C273.978 36.1599 273.182 35.7701 272.738 34.9628L272.385 34.3196L272.339 17.1598L272.295 0H268.439H264.583L264.587 18.1198ZM391.368 1.00895C386.457 2.36733 385.372 9.42421 389.626 12.3397C391.555 13.6626 395.266 13.8363 396.93 12.6824C397.155 12.5269 397.46 12.3282 397.61 12.2399C400.895 10.3064 400.763 3.58172 397.406 1.83646C397.209 1.7347 396.753 1.4851 396.391 1.28351C395.574 0.82751 392.609 0.665272 391.368 1.00895ZM395.751 2.60541C399.626 4.53211 399.719 9.45109 395.921 11.5247C392.204 13.555 387.724 10.3573 388.423 6.17177C388.948 3.03357 392.823 1.14815 395.751 2.60541ZM390.56 7.26808V10.8805H391.299H392.038V9.43669V7.99383L392.49 8.09943C393.411 8.31351 393.793 8.68694 394.577 10.1336C394.922 10.7701 394.975 10.8028 395.788 10.8488C396.683 10.8997 396.916 10.6645 396.391 10.2402C396.256 10.1308 396.145 9.97141 396.145 9.88597C396.145 9.80053 395.813 9.30613 395.408 8.78774L394.673 7.84503L395.152 7.60311C396.353 6.99832 396.569 5.26362 395.561 4.31131L394.978 3.76028L392.769 3.70748L390.56 3.65564V7.26808ZM394.379 5.40186C395.104 6.02681 394.646 6.48857 393.147 6.64312L392.038 6.75736V5.84345V4.92858L393.065 5.04186C393.63 5.1033 394.221 5.26554 394.379 5.40186ZM24.5319 12.1467C24.0786 12.2178 23.2951 12.4664 22.7916 12.6987C22.288 12.9301 21.8228 13.1202 21.7588 13.1202C21.6356 13.1202 20.4294 13.9554 19.637 14.589C19.3818 14.7934 18.8822 15.3089 18.5284 15.7342L17.8839 16.5089V14.6542V12.8005H13.9419H10V34.4002V56H13.9419H17.8839V47.506C17.8839 38.8412 17.9144 38.4111 18.4683 39.4824C20.4116 43.2446 28.3526 44.7134 33.7334 42.3058C35.8896 41.341 39.7281 37.8178 39.7281 36.8041C39.7281 36.7244 39.8818 36.4057 40.0681 36.0975C41.3985 33.9001 41.9592 30.784 41.8143 26.3891C41.494 16.6558 34.1867 10.6338 24.5319 12.1467ZM75.0418 12.1592C74.4545 12.2226 73.5301 12.4347 72.9881 12.6306C72.4461 12.8274 71.8548 13.029 71.6744 13.0799C70.2327 13.4811 66.6721 16.4053 65.8463 17.8654C64.6302 20.0177 64.237 20.8212 64.0557 21.5258C63.967 21.8753 63.7246 22.7364 63.5176 23.4401C62.9559 25.3562 62.9529 30.5094 63.5137 32.3996C63.7226 33.1043 63.9552 33.9174 64.032 34.2082C64.2153 34.909 65.3408 37.1189 65.7133 37.5096C65.8749 37.6805 66.0079 37.9061 66.0079 38.0117C66.0079 38.3285 68.4894 40.7074 69.4571 41.3179C74.8507 44.723 81.8545 44.3659 85.892 40.4789L87.185 39.2347L87.2313 41.0175L87.2776 42.8001L91.1791 42.8424L95.0797 42.8856V27.8426V12.8005H91.1377H87.1958V14.7368V16.674L86.7031 16.1605C86.432 15.8773 86.2103 15.5969 86.2103 15.5374C86.2103 15.4769 85.8615 15.1429 85.4347 14.7944C82.5433 12.4309 79.5662 11.6763 75.0418 12.1592ZM113.476 12.1554C112.339 12.2965 111.718 12.4597 110.827 12.8485C110.522 12.981 110.083 13.1307 109.85 13.1806C109.617 13.2315 109.152 13.4542 108.816 13.676C108.48 13.8987 108.135 14.0802 108.05 14.0802C107.965 14.0802 107.432 14.42 106.866 14.8357C102.072 18.3579 99.9745 23.824 100.802 30.64C101.044 32.6262 102.601 36.446 103.489 37.2293C103.651 37.3724 103.784 37.5653 103.784 37.6584C103.784 38.1212 106.733 40.669 108.24 41.509C113.148 44.2449 120.562 44.2219 125.383 41.4562C126.861 40.6075 128.907 38.9487 128.912 38.5944C128.913 38.4821 129.022 38.3496 129.153 38.3007C130.009 37.981 132.035 33.4787 132.035 31.8985C132.035 31.72 131.312 31.6796 128.089 31.6796H124.144L123.946 32.1203C121.564 37.4146 113.962 38.1154 110.364 33.3731C108.751 31.2457 107.999 27.0362 108.876 25.0404C109.111 24.5056 109.382 23.8557 109.688 23.0916C109.8 22.8122 110.033 22.4589 110.206 22.3073C110.378 22.1546 110.519 21.9693 110.519 21.8954C110.519 21.7342 111.784 20.4804 111.945 20.4804C112.007 20.4804 112.216 20.3354 112.409 20.1588C114.125 18.5883 119.395 18.5883 121.111 20.1588C121.304 20.3354 121.522 20.4804 121.594 20.4804C122.066 20.4804 123.987 23.0916 123.987 23.7328C123.987 23.9748 124.362 23.9997 128.012 23.9997C132.566 23.9997 132.154 24.1543 131.884 22.5549C131.803 22.0673 131.507 21.1841 131.228 20.5908C130.949 19.9975 130.722 19.4667 130.722 19.411C130.722 19.3553 130.536 19.074 130.311 18.786C130.085 18.4971 129.9 18.2014 129.9 18.1284C129.9 17.6264 125.96 14.0802 125.402 14.0802C125.267 14.0802 125.109 14.0062 125.051 13.915C124.895 13.6693 123.081 12.9128 121.36 12.3752C120.48 12.1007 115.118 11.9519 113.476 12.1554ZM149.856 12.1496C148.143 12.3042 144.354 13.5435 144.354 13.9496C144.354 14.0216 144.243 14.0802 144.109 14.0802C143.412 14.0802 140.672 16.5656 139.482 18.2792C136.279 22.8871 135.686 30.1369 138.119 34.9666C138.386 35.4975 138.605 35.9909 138.605 36.0629C138.605 36.1349 138.827 36.4661 139.098 36.8002C139.369 37.1333 139.591 37.4674 139.592 37.5433C139.594 37.7621 141.98 40.1602 142.197 40.1602C142.305 40.1602 142.434 40.2648 142.484 40.3925C142.612 40.717 144.718 41.9419 145.997 42.4344C150.405 44.1326 157.301 43.739 160.987 41.579C161.416 41.3266 161.829 41.1202 161.903 41.1202C161.977 41.1202 162.253 40.9061 162.517 40.644C162.78 40.3829 163.057 40.1669 163.132 40.164C163.296 40.1592 164.721 38.7903 164.721 38.6386C164.721 38.5791 164.905 38.34 165.131 38.1058C165.916 37.2917 167.043 35.0569 167.274 33.8559L167.385 33.2799L163.713 33.2876L160.04 33.2953L159.464 34.1833C158.629 35.4735 157.768 36.0821 155.659 36.8703C154.425 37.3311 150.916 37.4693 149.987 37.094C148.093 36.3289 147.411 35.9295 146.571 35.0982C145.382 33.9222 144.354 31.8448 144.354 30.6198V30.0803H156.015H167.677V27.8694C167.677 24.9117 167.054 21.8781 166.099 20.1799C165.883 19.795 165.706 19.4215 165.706 19.3505C165.706 19.2785 165.363 18.7294 164.943 18.1304C161.727 13.5301 156.691 11.5343 149.856 12.1496ZM241.503 12.1467C241.048 12.2178 240.265 12.4664 239.762 12.6987C239.259 12.9301 238.798 13.1202 238.739 13.1202C238.322 13.1202 236.296 14.7493 235.489 15.7342L234.854 16.5089V14.6542V12.8005H230.912H226.97V34.4002V56H230.912H234.854V47.506C234.854 38.8114 234.884 38.4082 235.449 39.5026C235.55 39.6984 236.083 40.2687 236.634 40.7698C241.192 44.9131 249.978 44.364 254.488 39.6533C255.313 38.7912 256.699 37.0076 256.699 36.8069C256.699 36.7253 256.852 36.4057 257.039 36.0975C258.369 33.9001 258.93 30.784 258.785 26.3891C258.464 16.6577 251.154 10.6348 241.503 12.1467ZM292.012 12.1592C291.424 12.2226 290.501 12.4347 289.959 12.6306C289.417 12.8274 288.826 13.029 288.645 13.0799C287.199 13.4821 283.647 16.3918 282.828 17.8443C282.156 19.0366 282.023 19.2804 281.606 20.0859C281.376 20.5294 281.116 21.1774 281.026 21.5258C280.937 21.8753 280.694 22.7364 280.488 23.4401C279.926 25.3562 279.924 30.5094 280.484 32.3996C280.693 33.1043 280.926 33.9174 281.002 34.2082C281.186 34.909 282.311 37.1189 282.683 37.5096C282.846 37.6805 282.979 37.9061 282.979 38.0117C282.979 38.3285 285.46 40.7074 286.428 41.3179C291.824 44.7249 298.824 44.3659 302.868 40.4741L304.167 39.2252V41.052V42.8798H308.026H311.886V27.8397V12.8005H308.026H304.167V14.7368V16.674L303.674 16.1605C303.403 15.8773 303.181 15.5969 303.181 15.5374C303.181 15.4769 302.831 15.1429 302.405 14.7944C299.514 12.4309 296.537 11.6763 292.012 12.1592ZM330.364 12.1563C329.291 12.3032 328.652 12.4751 327.796 12.8485C327.492 12.981 327.052 13.1307 326.82 13.1806C326.588 13.2315 326.123 13.4542 325.786 13.676C325.45 13.8987 325.105 14.0802 325.02 14.0802C324.235 14.0802 321.021 17.1934 319.925 19.0164C316.354 24.9578 316.994 33.9567 321.299 38.3506C324.566 41.6856 327.656 43.1361 332.293 43.5134C337.823 43.9637 342.471 42.2261 346.185 38.3199C347.099 37.358 348.417 34.8265 348.683 33.5199C348.754 33.1676 348.866 32.6099 348.931 32.2796L349.048 31.6796H345.082H341.115L340.917 32.1203C338.533 37.4146 330.931 38.1154 327.335 33.3731C325.722 31.2457 324.969 27.0362 325.846 25.0404C326.081 24.5056 326.352 23.8557 326.658 23.0916C326.771 22.8122 327.003 22.4589 327.176 22.3073C327.348 22.1546 327.489 21.9693 327.489 21.8954C327.489 21.7342 328.753 20.4804 328.916 20.4804C328.978 20.4804 329.187 20.3354 329.38 20.1588C331.095 18.5883 336.366 18.5883 338.082 20.1588C338.275 20.3354 338.492 20.4804 338.565 20.4804C338.746 20.4804 339.972 21.7246 339.972 21.9089C339.972 21.9905 340.074 22.1556 340.197 22.2765C340.508 22.5789 340.958 23.4516 340.958 23.752C340.958 23.969 341.457 23.9997 344.981 23.9997C348.704 23.9997 349.006 23.9796 349.006 23.7204C349.006 23.0743 348.528 21.2906 348.125 20.4334C347.886 19.9255 347.691 19.4657 347.691 19.41C347.691 19.3553 347.507 19.074 347.281 18.786C347.056 18.4971 346.87 18.2014 346.87 18.1284C346.87 17.6264 342.929 14.0802 342.372 14.0802C342.237 14.0802 342.081 14.0072 342.025 13.9189C341.887 13.7019 340.633 13.1202 340.302 13.1202C340.157 13.1202 339.967 13.0539 339.881 12.9743C339.104 12.2447 333.34 11.7493 330.364 12.1563ZM366.826 12.1496C365.114 12.3042 361.324 13.5435 361.324 13.9496C361.324 14.0216 361.214 14.0802 361.08 14.0802C360.381 14.0802 357.643 16.5656 356.451 18.2792C353.248 22.8871 352.657 30.1369 355.089 34.9666C355.356 35.4975 355.575 35.9909 355.575 36.0629C355.575 36.1349 355.786 36.4565 356.044 36.7772C356.302 37.0978 356.543 37.4444 356.578 37.548C356.696 37.8898 358.923 40.1602 359.141 40.1602C359.257 40.1602 359.354 40.2322 359.354 40.3205C359.354 40.5807 361.517 41.8565 362.827 42.3701C367.334 44.1365 374.208 43.7765 377.956 41.579C378.387 41.3266 378.8 41.1202 378.874 41.1202C378.948 41.1202 379.224 40.9061 379.487 40.644C379.751 40.3829 380.028 40.1669 380.102 40.164C380.266 40.1592 381.69 38.7903 381.69 38.6386C381.69 38.5791 381.876 38.34 382.101 38.1058C382.886 37.2917 384.013 35.0569 384.245 33.8559L384.355 33.2799L380.682 33.2876L377.009 33.2953L376.435 34.1833C375.6 35.4735 374.739 36.0821 372.629 36.8703C371.396 37.3311 367.887 37.4693 366.958 37.094C365.063 36.3289 364.381 35.9295 363.541 35.0982C362.352 33.9222 361.324 31.8448 361.324 30.6198V30.0803H372.986H384.647V27.8694C384.647 17.3316 377.666 11.1733 366.826 12.1496ZM154.701 18.5249C157.401 19.2228 159.546 21.3953 159.941 23.8327L160.072 24.64H152.202H144.332L144.434 24.28C144.7 23.3421 145.445 21.7841 145.867 21.2801C146.125 20.9719 146.394 20.6484 146.465 20.5601C146.626 20.3585 147.381 19.794 148.144 19.3044C148.467 19.0971 149.17 18.8004 149.705 18.6468C150.239 18.4923 150.752 18.3425 150.841 18.3156C151.365 18.1553 153.781 18.2868 154.701 18.5249ZM371.672 18.5249C374.371 19.2228 376.517 21.3953 376.912 23.8327L377.043 24.64H369.173H361.302L361.404 24.28C361.67 23.3421 362.414 21.7841 362.837 21.2801C363.095 20.9719 363.367 20.6484 363.441 20.5601C364.032 19.8603 365.521 18.9771 366.662 18.6487C367.204 18.4932 367.721 18.3425 367.812 18.3156C368.336 18.1553 370.752 18.2868 371.672 18.5249ZM27.1149 19.0452C28.125 19.2267 29.8604 19.8478 30.298 20.1838C32.7331 22.0567 33.8162 24.1956 33.9324 27.3597C34.0783 31.3244 32.3744 34.3666 29.1341 35.9257C27.6746 36.6284 24.0017 36.6476 22.7492 35.9602C22.3087 35.7183 21.8613 35.5196 21.7538 35.5196C21.6474 35.5196 21.1409 35.1058 20.6284 34.5999C14.4938 28.5443 19.0605 17.5947 27.1149 19.0452ZM81.6938 19.3879C82.3255 19.5809 83.0785 19.9063 83.3662 20.1098C83.654 20.3134 83.9309 20.4804 83.9821 20.4804C84.0334 20.4804 84.3527 20.7521 84.6907 21.0852C87.6314 23.9748 88.1537 28.7056 86.0004 32.9353C85.5284 33.8627 83.9348 35.2863 82.6596 35.9199L81.3706 36.5602L79.1503 36.5545C73.4394 36.5401 69.598 30.9347 71.4202 25.2736C71.6025 24.7053 71.7533 24.1418 71.7543 24.0208C71.7671 22.6701 74.4949 20.1146 76.6837 19.4014C78.558 18.7918 79.7278 18.7879 81.6938 19.3879ZM245.425 19.386C245.98 19.5694 246.811 19.9601 247.274 20.2538C248.035 20.7386 248.398 21.0833 249.382 22.2573C251.955 25.3255 251.169 32.2172 247.956 34.7708C245.788 36.494 241.752 37.0767 239.72 35.9602C239.279 35.7183 238.831 35.5196 238.724 35.5196C238.512 35.5196 236.478 33.5833 236.337 33.2463C236.289 33.1331 236.121 32.8547 235.962 32.6281C234.842 31.022 234.475 27.4307 235.18 24.9597C236.508 20.297 240.919 17.8971 245.425 19.386ZM298.664 19.3879C299.296 19.5809 300.049 19.9063 300.337 20.1098C300.624 20.3134 300.907 20.4804 300.964 20.4804C301.021 20.4804 301.317 20.7377 301.621 21.0516C305.935 25.5088 304.891 33.302 299.627 35.9199L298.341 36.5602L296.121 36.5516C290.397 36.5285 286.567 30.9404 288.39 25.2736C288.573 24.7053 288.724 24.1418 288.725 24.0208C288.728 23.6973 289.811 22.0173 290.495 21.2753C291.429 20.2615 293.375 19.2977 295.133 18.9799C295.879 18.8446 297.497 19.0318 298.664 19.3879Z" fill="white"/>
<path d="M19.7 75.9C20.52 75.9 21.1 75.36 21.1 74.56C21.1 73.8 20.52 73.24 19.7 73.24C18.9 73.24 18.32 73.8 18.32 74.56C18.32 75.36 18.9 75.9 19.7 75.9ZM18.64 88H20.74V77.54H18.64V88ZM23.7572 88H25.8572V81.9C25.8572 80.38 26.9372 79.24 28.3972 79.24C29.7172 79.24 30.7372 80.22 30.7372 81.68V88H32.8372V81.28C32.8372 79.02 31.3772 77.28 28.9972 77.28C27.4372 77.28 26.3572 78.08 25.9372 78.94H25.7972V77.54H23.7572V88ZM40.1866 88H41.9266V86.22H40.5066C39.4066 86.22 38.9866 85.62 38.9866 84.62V79.26H42.0266V77.54H38.9866V74.58H37.0066V76.88C37.0066 77.3 36.7466 77.56 36.3866 77.56H35.0066V79.26H36.8866V84.68C36.8866 86.86 38.1266 88 40.1866 88ZM49.0389 88.26C51.6189 88.26 53.4789 86.86 54.0189 84.84H51.9789C51.5589 85.86 50.4189 86.5 49.0989 86.5C47.1789 86.5 45.9589 85.26 45.8789 83.44H54.1189V82.66C54.1189 79.68 52.2589 77.28 48.9989 77.28C46.0189 77.28 43.7789 79.48 43.7789 82.8C43.7789 85.94 45.8989 88.26 49.0389 88.26ZM45.9189 81.82C46.0789 80.18 47.3989 79.04 48.9989 79.04C50.6189 79.04 51.8989 80.06 52.0389 81.82H45.9189ZM56.6673 88H58.7673V82.84C58.7673 80.9 59.7873 79.56 61.5673 79.56H62.5473V77.52H61.6273C60.1473 77.52 59.1473 78.52 58.8273 79.36H58.6873V77.54H56.6673V88ZM64.9681 88H67.0681V81.9C67.0681 80.38 68.1481 79.24 69.6081 79.24C70.9281 79.24 71.9481 80.22 71.9481 81.68V88H74.0481V81.28C74.0481 79.02 72.5881 77.28 70.2081 77.28C68.6481 77.28 67.5681 78.08 67.1481 78.94H67.0081V77.54H64.9681V88ZM87.2267 88.26C89.6867 88.26 91.8067 86.78 92.2667 84.38H90.1267C89.7667 85.56 88.6067 86.36 87.2667 86.36C85.3067 86.36 83.9467 84.84 83.9467 82.78C83.9467 80.76 85.2467 79.2 87.2267 79.2C88.6067 79.2 89.7467 80 90.1067 81.2H92.2667C91.7867 78.8 89.6867 77.28 87.2067 77.28C84.0267 77.28 81.7867 79.68 81.7867 82.78C81.7867 85.86 83.9867 88.26 87.2267 88.26ZM95.8914 75.9C96.7114 75.9 97.2914 75.36 97.2914 74.56C97.2914 73.8 96.7114 73.24 95.8914 73.24C95.0914 73.24 94.5114 73.8 94.5114 74.56C94.5114 75.36 95.0914 75.9 95.8914 75.9ZM94.8314 88H96.9314V77.54H94.8314V88ZM99.9486 88H102.049V82.84C102.049 80.9 103.069 79.56 104.849 79.56H105.829V77.52H104.909C103.429 77.52 102.429 78.52 102.109 79.36H101.969V77.54H99.9486V88ZM117.309 88L113.409 81.5L117.049 77.54H114.429L110.469 82H110.349V73H108.249V88H110.349V84.84L111.969 83.06L114.929 88H117.309ZM122.867 88.26C124.427 88.26 125.507 87.46 125.927 86.6H126.067V88H128.107V77.54H126.007V83.68C126.007 85.2 124.927 86.32 123.467 86.32C122.147 86.32 121.127 85.36 121.127 83.88V77.54H119.027V84.26C119.027 86.52 120.487 88.26 122.867 88.26ZM133.659 88H134.519V86.14H134.079C133.559 86.14 133.279 85.84 133.279 85.28V73H131.179V85.4C131.179 87.04 132.079 88 133.659 88ZM141.203 88.26C143.283 88.26 144.303 86.92 144.583 86.52H144.703V88H146.763V77.54H144.663V79.06H144.523C144.183 78.52 143.103 77.28 141.103 77.28C138.183 77.28 136.123 79.56 136.123 82.8C136.123 86.04 138.203 88.26 141.203 88.26ZM141.503 86.36C139.583 86.36 138.263 84.96 138.263 82.78C138.263 80.68 139.583 79.2 141.483 79.2C143.323 79.2 144.723 80.52 144.723 82.78C144.723 84.76 143.503 86.36 141.503 86.36ZM154.112 88H155.852V86.22H154.432C153.332 86.22 152.912 85.62 152.912 84.62V79.26H155.952V77.54H152.912V74.58H150.932V76.88C150.932 77.3 150.672 77.56 150.312 77.56H148.932V79.26H150.812V84.68C150.812 86.86 152.052 88 154.112 88ZM159.505 75.9C160.325 75.9 160.905 75.36 160.905 74.56C160.905 73.8 160.325 73.24 159.505 73.24C158.705 73.24 158.125 73.8 158.125 74.56C158.125 75.36 158.705 75.9 159.505 75.9ZM158.445 88H160.545V77.54H158.445V88ZM168.342 88.26C171.542 88.26 173.862 85.9 173.862 82.78C173.862 79.66 171.582 77.28 168.362 77.28C165.142 77.28 162.822 79.64 162.822 82.78C162.822 85.92 165.122 88.26 168.342 88.26ZM168.342 86.36C166.382 86.36 164.962 84.86 164.962 82.78C164.962 80.72 166.362 79.2 168.342 79.2C170.322 79.2 171.722 80.7 171.722 82.78C171.722 84.84 170.322 86.36 168.342 86.36ZM176.394 88H178.494V81.9C178.494 80.38 179.574 79.24 181.034 79.24C182.354 79.24 183.374 80.22 183.374 81.68V88H185.474V81.28C185.474 79.02 184.014 77.28 181.634 77.28C180.074 77.28 178.994 78.08 178.574 78.94H178.434V77.54H176.394V88ZM198.733 88.26C201.933 88.26 204.253 85.9 204.253 82.78C204.253 79.66 201.973 77.28 198.753 77.28C195.533 77.28 193.213 79.64 193.213 82.78C193.213 85.92 195.513 88.26 198.733 88.26ZM198.733 86.36C196.773 86.36 195.353 84.86 195.353 82.78C195.353 80.72 196.753 79.2 198.733 79.2C200.713 79.2 202.113 80.7 202.113 82.78C202.113 84.84 200.713 86.36 198.733 86.36ZM211.485 88.26C213.945 88.26 216.065 86.78 216.525 84.38H214.385C214.025 85.56 212.865 86.36 211.525 86.36C209.565 86.36 208.205 84.84 208.205 82.78C208.205 80.76 209.505 79.2 211.485 79.2C212.865 79.2 214.005 80 214.365 81.2H216.525C216.045 78.8 213.945 77.28 211.465 77.28C208.285 77.28 206.045 79.68 206.045 82.78C206.045 85.86 208.245 88.26 211.485 88.26ZM219.089 88H221.189V81.8C221.189 80.32 222.349 79.24 223.769 79.24C225.089 79.24 226.149 80.22 226.149 81.68V88H228.249V81.28C228.249 79.02 226.769 77.28 224.389 77.28C222.829 77.28 221.749 78.08 221.309 78.94H221.169V73H219.089V88ZM236.726 88H238.826V81.8C238.826 80.32 239.986 79.24 241.406 79.24C242.726 79.24 243.786 80.22 243.786 81.68V88H245.886V81.28C245.886 79.02 244.406 77.28 242.026 77.28C240.466 77.28 239.386 78.08 238.946 78.94H238.806V73H236.726V88ZM253.753 76.4C254.853 76.4 255.673 75.62 255.673 74.54C255.673 73.48 254.873 72.7 253.733 72.7C252.633 72.7 251.813 73.48 251.813 74.56C251.813 75.62 252.633 76.4 253.753 76.4ZM253.753 75.34C253.273 75.34 252.973 75.02 252.973 74.56C252.973 74.08 253.273 73.78 253.733 73.78C254.213 73.78 254.513 74.08 254.513 74.54C254.513 75.02 254.213 75.34 253.753 75.34ZM253.253 88.26C255.333 88.26 256.353 86.92 256.633 86.52H256.753V88H258.813V77.54H256.713V79.06H256.573C256.233 78.52 255.153 77.28 253.153 77.28C250.233 77.28 248.173 79.56 248.173 82.8C248.173 86.04 250.253 88.26 253.253 88.26ZM253.553 86.36C251.633 86.36 250.313 84.96 250.313 82.78C250.313 80.68 251.633 79.2 253.533 79.2C255.373 79.2 256.773 80.52 256.773 82.78C256.773 84.76 255.553 86.36 253.553 86.36ZM264.323 88H265.183V86.14H264.743C264.223 86.14 263.943 85.84 263.943 85.28V73H261.843V85.4C261.843 87.04 262.743 88 264.323 88ZM270.046 88H270.906V86.14H270.466C269.946 86.14 269.666 85.84 269.666 85.28V73H267.566V85.4C267.566 87.04 268.466 88 270.046 88ZM279.141 88.26C282.161 88.26 284.221 86.04 284.221 82.8C284.221 79.56 282.161 77.28 279.261 77.28C277.261 77.28 276.161 78.52 275.821 79.06H275.701V73H273.601V88H275.641V86.52H275.781C276.061 86.92 277.061 88.26 279.141 88.26ZM278.841 86.36C276.841 86.36 275.641 84.76 275.641 82.78C275.641 80.52 277.041 79.2 278.881 79.2C280.781 79.2 282.081 80.68 282.081 82.78C282.081 84.96 280.781 86.36 278.841 86.36ZM291.105 88.26C293.185 88.26 294.205 86.92 294.485 86.52H294.605V88H296.665V77.54H294.565V79.06H294.425C294.085 78.52 293.005 77.28 291.005 77.28C288.085 77.28 286.025 79.56 286.025 82.8C286.025 86.04 288.105 88.26 291.105 88.26ZM291.405 86.36C289.485 86.36 288.165 84.96 288.165 82.78C288.165 80.68 289.485 79.2 291.385 79.2C293.225 79.2 294.625 80.52 294.625 82.78C294.625 84.76 293.405 86.36 291.405 86.36ZM299.695 88H301.795V82.84C301.795 80.9 302.815 79.56 304.595 79.56H305.575V77.52H304.655C303.175 77.52 302.175 78.52 301.855 79.36H301.715V77.54H299.695V88ZM311.964 88.26C314.044 88.26 315.064 86.92 315.344 86.52H315.464V88H317.524V77.54H315.424V79.06H315.284C314.944 78.52 313.864 77.28 311.864 77.28C308.944 77.28 306.884 79.56 306.884 82.8C306.884 86.04 308.964 88.26 311.964 88.26ZM312.264 86.36C310.344 86.36 309.024 84.96 309.024 82.78C309.024 80.68 310.344 79.2 312.244 79.2C314.084 79.2 315.484 80.52 315.484 82.78C315.484 84.76 314.264 86.36 312.264 86.36ZM327.063 75.9C327.883 75.9 328.463 75.36 328.463 74.56C328.463 73.8 327.883 73.24 327.063 73.24C326.263 73.24 325.683 73.8 325.683 74.56C325.683 75.36 326.263 75.9 327.063 75.9ZM326.003 88H328.103V77.54H326.003V88ZM331.12 88H333.22V81.9C333.22 80.38 334.3 79.24 335.76 79.24C337.08 79.24 338.1 80.22 338.1 81.68V88H340.2V81.28C340.2 79.02 338.74 77.28 336.36 77.28C334.8 77.28 333.72 78.08 333.3 78.94H333.16V77.54H331.12V88ZM352.29 88L348.39 81.5L352.03 77.54H349.41L345.45 82H345.33V73H343.23V88H345.33V84.84L346.95 83.06L349.91 88H352.29ZM356.659 75.72C357.399 75.72 357.879 75.2 357.879 74.5C357.879 73.82 357.399 73.28 356.659 73.28C355.979 73.28 355.439 73.82 355.439 74.5C355.439 75.2 355.979 75.72 356.659 75.72ZM360.219 75.72C360.899 75.72 361.459 75.2 361.459 74.5C361.459 73.82 360.899 73.28 360.219 73.28C359.479 73.28 358.999 73.8 358.999 74.5C358.999 75.2 359.479 75.72 360.219 75.72ZM358.479 88.26C361.679 88.26 363.999 85.9 363.999 82.78C363.999 79.66 361.719 77.28 358.499 77.28C355.279 77.28 352.959 79.64 352.959 82.78C352.959 85.92 355.259 88.26 358.479 88.26ZM358.479 86.36C356.519 86.36 355.099 84.86 355.099 82.78C355.099 80.72 356.499 79.2 358.479 79.2C360.459 79.2 361.859 80.7 361.859 82.78C361.859 84.84 360.459 86.36 358.479 86.36ZM366.531 92.6H368.631V86.48H368.751C369.091 87.04 370.171 88.26 372.191 88.26C375.091 88.26 377.151 85.98 377.151 82.74C377.151 79.5 375.091 77.28 372.071 77.28C369.991 77.28 368.991 78.62 368.711 79.04H368.571V77.54H366.531V92.6ZM371.811 86.36C369.971 86.36 368.571 85.02 368.571 82.76C368.571 80.78 369.771 79.18 371.771 79.18C373.711 79.18 375.011 80.58 375.011 82.76C375.011 84.86 373.711 86.36 371.811 86.36Z" fill="white"/>
</g>
<defs>
<clipPath id="clip0_107_4">
<rect width="400" height="97" fill="white"/>
</clipPath>
</defs>
</svg>
